<svg width="25" height="22" viewBox="0 0 25 22" fill="none" xmlns="http://www.w3.org/2000/svg">
<path d="M19.4145 4.01007C19.9222 4.01007 20.4196 3.87675 20.8555 3.61522L24.9937 1.16918V0.0256399L20.3375 2.73834C19.9837 2.94346 19.5837 3.05114 19.1786 3.04602L13.0148 2.97422C12.7071 2.86141 12.461 2.78962 12.3687 2.75372C10.4406 2.32297 8.93293 2.49219 7.90733 2.76911C7.13814 2.97422 6.31766 2.8973 5.58949 2.56399L0 0V10.2457L0.579461 10.5636C1.43583 11.0303 2.11785 11.7533 2.54347 12.6302L2.21528 12.8969C1.33327 13.5378 1.14354 14.7788 1.723 15.6557C2.04606 16.0813 2.50245 16.3531 3.0255 16.4454C3.08704 16.4505 3.17934 16.4557 3.24601 16.4557C3.43574 16.4659 3.62035 16.4454 3.77932 16.4198C3.78957 16.8608 3.89213 17.2402 4.15366 17.5992C4.50236 18.0864 5.05618 18.3069 5.65103 18.3376C5.80487 18.3479 5.96383 18.353 6.0869 18.3633C6.0305 18.8299 6.16382 19.3068 6.45612 19.6965C6.77918 20.1222 7.23557 20.3939 7.75862 20.4863C7.82016 20.4914 7.91246 20.4965 7.97913 20.4965C8.44577 20.5221 8.89191 20.3888 9.25086 20.1273L9.44573 19.9786C9.49188 20.2606 9.57393 20.517 9.74828 20.7478C10.0098 21.1067 10.4047 21.3478 10.8713 21.4349C10.9328 21.4401 10.9944 21.4401 11.061 21.4452C11.4354 21.4657 11.8149 21.358 12.143 21.1272H12.1738L12.4046 21.4503C12.8097 22.0349 13.6507 22.1734 14.2353 21.7682C14.7224 21.4195 14.9173 20.7375 14.6968 20.194L14.7378 20.2555C15.1224 20.8247 15.8506 21.0708 16.4864 20.8093C17.189 20.5221 17.471 19.7632 17.2864 19.112C17.7582 19.6401 18.5684 19.7427 19.153 19.3376L19.1837 19.3068C19.7683 18.9017 19.9376 18.1274 19.6248 17.512C20.1324 17.9787 20.9426 18.0505 21.5272 17.6454C22.2093 17.1479 22.3887 16.189 21.8913 15.5019L21.1631 14.4609L22.7477 12.6148C23.1631 12.1277 23.6605 11.7174 24.2143 11.3944L24.9937 10.9431V9.72264L23.9169 10.3329C23.3015 10.6816 22.7477 11.1328 22.2862 11.6713L20.5837 13.6455C20.076 13.1789 19.2658 13.1071 18.6812 13.5122C17.9992 14.0096 17.8197 14.9686 18.3171 15.6557L18.3428 15.7224H18.312C17.83 15.3839 17.1736 15.348 16.6557 15.6967L16.6249 15.7275C16.1685 16.0454 15.9531 16.5992 16.0506 17.1377L15.8865 17.2556C15.4301 17.0146 14.866 17.0146 14.4096 17.3325C13.9891 17.6248 13.7737 18.1428 13.8096 18.6145L13.3584 18.9017C13.0199 18.8197 12.6405 18.8966 12.3482 19.0966C11.9892 19.3581 11.779 19.7888 11.7892 20.194L11.5636 20.3375C11.4303 20.4555 11.2098 20.5068 11.0251 20.4657C10.8405 20.4247 10.6559 20.3222 10.538 20.1581C10.42 20.0247 10.3688 19.8042 10.4098 19.6196C10.4508 19.435 10.5534 19.2504 10.7175 19.1325L13.1635 17.2915C13.2917 17.2044 13.3635 17.0813 13.3686 16.9274C13.384 16.6454 13.143 16.4044 12.8661 16.4044C12.7584 16.4044 12.6712 16.43 12.5789 16.4813L8.6714 19.3119C8.44577 19.4555 8.18937 19.5376 7.91246 19.4914C7.63555 19.4453 7.38941 19.3068 7.24583 19.0812C6.92276 18.6556 7.0202 18.0043 7.47659 17.6864L12.1328 14.3635C12.2353 14.2711 12.3071 14.1429 12.3071 13.9737C12.3123 13.7071 12.0918 13.4814 11.8251 13.4712C11.6713 13.4661 11.5482 13.5225 11.4456 13.6404L6.88687 16.9377C6.75867 16.9941 6.69201 17.0864 6.59457 17.1736C6.04588 17.5223 5.23566 17.4454 4.94337 17.0556C4.65107 16.6351 4.71261 16.0711 5.07669 15.7172L5.53308 15.3993L10.5995 11.943C10.7277 11.8559 10.7995 11.7328 10.8046 11.579C10.8149 11.4097 10.7328 11.2508 10.5944 11.1533C10.4149 11.0251 10.2354 11.02 10.0457 11.1328L4.6203 14.8198C4.58441 14.8814 4.52287 14.907 4.48698 14.9378L3.96392 15.3173C3.5383 15.6403 2.88705 15.5429 2.56911 15.0865C2.24605 14.6609 2.34348 14.0096 2.79987 13.6917L13.0302 6.1587C13.8507 6.64072 14.4558 7.60991 14.4558 7.60991C15.4608 10.7585 16.7121 10.7841 17.471 10.4047C17.8659 10.2098 18.0453 9.74315 17.9069 9.32266C17.5069 8.10733 17.2761 5.75359 17.2761 5.75359C16.9941 5.14336 16.0916 4.50236 15.0865 3.97931L18.3735 4.03059L19.4145 4.01007Z" fill="#F4F4F4"/>
</svg>
