<svg width="31" height="28" viewBox="0 0 31 28" fill="none" xmlns="http://www.w3.org/2000/svg">
<path d="M3 26C3 26 2 26 2 25C2 24 3 21 8 21C13 21 14 24 14 25C14 26 13 26 13 26H3Z" fill="#F4F4F4"/>
<path d="M8 20C9.65685 20 11 18.6569 11 17C11 15.3431 9.65685 14 8 14C6.34315 14 5 15.3431 5 17C5 18.6569 6.34315 20 8 20Z" fill="#F4F4F4"/>
<path d="M18 26C18 26 17 26 17 25C17 24 18 21 23 21C28 21 29 24 29 25C29 26 28 26 28 26H18Z" fill="#F4F4F4"/>
<path d="M23 20C24.6569 20 26 18.6569 26 17C26 15.3431 24.6569 14 23 14C21.3431 14 20 15.3431 20 17C20 18.6569 21.3431 20 23 20Z" fill="#F4F4F4"/>
<path d="M11.6464 4.64645C11.8417 4.45118 12.1583 4.45118 12.3536 4.64645L15 7.29289L17.6464 4.64645C17.8417 4.45118 18.1583 4.45118 18.3536 4.64645C18.5488 4.84171 18.5488 5.15829 18.3536 5.35355L15.7071 8L18.3536 10.6464C18.5488 10.8417 18.5488 11.1583 18.3536 11.3536C18.1583 11.5488 17.8417 11.5488 17.6464 11.3536L15 8.70711L12.3536 11.3536C12.1583 11.5488 11.8417 11.5488 11.6464 11.3536C11.4512 11.1583 11.4512 10.8417 11.6464 10.6464L14.2929 8L11.6464 5.35355C11.4512 5.15829 11.4512 4.84171 11.6464 4.64645Z" fill="#F4F4F4"/>
</svg>
