<svg width="31" height="26" viewBox="0 0 31 26" fill="none" xmlns="http://www.w3.org/2000/svg">
<path d="M3 24C3 24 2 24 2 23C2 22 3 19 8 19C13 19 14 22 14 23C14 24 13 24 13 24H3Z" fill="#F4F4F4"/>
<path d="M8 18C9.65685 18 11 16.6569 11 15C11 13.3431 9.65685 12 8 12C6.34315 12 5 13.3431 5 15C5 16.6569 6.34315 18 8 18Z" fill="#F4F4F4"/>
<path d="M18 24C18 24 17 24 17 23C17 22 18 19 23 19C28 19 29 22 29 23C29 24 28 24 28 24H18Z" fill="#F4F4F4"/>
<path d="M23 18C24.6569 18 26 16.6569 26 15C26 13.3431 24.6569 12 23 12C21.3431 12 20 13.3431 20 15C20 16.6569 21.3431 18 23 18Z" fill="#F4F4F4"/>
<path d="M12.8374 0.0915291C12.896 0.032924 12.9755 0 13.0584 0H16.9416C17.0245 0 17.104 0.032924 17.1626 0.0915291L19.9085 2.8374C19.9671 2.89601 20 2.97549 20 3.05837V6.94163C20 7.02451 19.9671 7.10399 19.9085 7.1626L17.1626 9.90847C17.104 9.96708 17.0245 10 16.9416 10H13.0584C12.9755 10 12.896 9.96708 12.8374 9.90847L10.0915 7.1626C10.0329 7.10399 10 7.02451 10 6.94163V3.05837C10 2.97549 10.0329 2.89601 10.0915 2.8374L12.8374 0.0915291ZM13.1878 0.625L10.625 3.18782V6.81218L13.1878 9.375H16.8122L19.375 6.81218V3.18782L16.8122 0.625H13.1878Z" fill="#F4F4F4"/>
<path d="M13.2844 3.61634C13.2797 3.70148 13.3499 3.77045 13.4352 3.77045H13.9505C14.0368 3.77045 14.1054 3.70008 14.117 3.61457C14.1726 3.20449 14.4541 2.90558 14.9558 2.90558C15.3842 2.90558 15.777 3.11981 15.777 3.63556C15.777 4.03229 15.5429 4.21478 15.174 4.49249C14.7534 4.79797 14.4202 5.15503 14.444 5.73425L14.4458 5.86976C14.447 5.95521 14.5166 6.02386 14.6021 6.02386H15.109C15.1953 6.02386 15.2652 5.95391 15.2652 5.86761V5.8017C15.2652 5.35339 15.4358 5.22247 15.896 4.87335C16.2769 4.58374 16.6736 4.26239 16.6736 3.58795C16.6736 2.64374 15.8762 2.1875 15.0034 2.1875C14.2114 2.1875 13.3435 2.55663 13.2844 3.61634ZM14.2575 7.21802C14.2575 7.55127 14.5233 7.79724 14.8883 7.79724C15.2692 7.79724 15.531 7.55127 15.531 7.21802C15.531 6.87286 15.2692 6.63086 14.8883 6.63086C14.5233 6.63086 14.2575 6.87286 14.2575 7.21802Z" fill="#F4F4F4"/>
</svg>
