<svg width="44" height="42" viewBox="0 0 44 42" fill="none" xmlns="http://www.w3.org/2000/svg">
<path d="M7.8125 10.4167C7.09338 10.4167 6.51042 10.9996 6.51042 11.7187C6.51042 12.4379 7.09338 13.0208 7.8125 13.0208H23.4375C24.1566 13.0208 24.7396 12.4379 24.7396 11.7187C24.7396 10.9996 24.1566 10.4167 23.4375 10.4167H7.8125Z" fill="#F4F4F4"/>
<path d="M6.51042 16.9271C6.51042 16.208 7.09338 15.625 7.8125 15.625H23.4375C24.1566 15.625 24.7396 16.208 24.7396 16.9271C24.7396 17.6462 24.1566 18.2292 23.4375 18.2292H7.8125C7.09338 18.2292 6.51042 17.6462 6.51042 16.9271Z" fill="#F4F4F4"/>
<path d="M7.8125 20.8333C7.09338 20.8333 6.51042 21.4163 6.51042 22.1354C6.51042 22.8545 7.09338 23.4375 7.8125 23.4375H23.4375C24.1566 23.4375 24.7396 22.8545 24.7396 22.1354C24.7396 21.4163 24.1566 20.8333 23.4375 20.8333H7.8125Z" fill="#F4F4F4"/>
<path d="M7.8125 26.0417C7.09338 26.0417 6.51042 26.6246 6.51042 27.3437C6.51042 28.0629 7.09338 28.6458 7.8125 28.6458H15.625C16.3441 28.6458 16.9271 28.0629 16.9271 27.3437C16.9271 26.6246 16.3441 26.0417 15.625 26.0417H7.8125Z" fill="#F4F4F4"/>
<path d="M0 5.20833C0 2.33185 2.33185 0 5.20833 0H26.0417C28.9182 0 31.25 2.33185 31.25 5.20833V36.4583C31.25 39.3348 28.9182 41.6667 26.0417 41.6667H5.20833C2.33185 41.6667 0 39.3348 0 36.4583V5.20833ZM26.0417 2.60417H5.20833C3.77009 2.60417 2.60417 3.77009 2.60417 5.20833V36.4583C2.60417 37.8966 3.77009 39.0625 5.20833 39.0625H26.0417C27.4799 39.0625 28.6458 37.8966 28.6458 36.4583V5.20833C28.6458 3.77009 27.4799 2.60417 26.0417 2.60417Z" fill="#F4F4F4"/>
<path d="M35.7193 11.6744C35.2834 11.2385 34.5766 11.2385 34.1407 11.6744L26.7216 19.0935C26.5036 19.3115 26.5036 19.6649 26.7216 19.8828C26.9396 20.1008 27.293 20.1008 27.5109 19.8828L34.93 12.4637L42.3491 19.8828C42.5671 20.1008 42.9205 20.1008 43.1384 19.8828C43.3564 19.6649 43.3564 19.3115 43.1384 19.0935L40.5113 16.4664V12.7907C40.5113 12.4824 40.2614 12.2326 39.9531 12.2326H38.8369C38.5286 12.2326 38.2788 12.4824 38.2788 12.7907V14.2339L35.7193 11.6744Z" fill="#F4F4F4"/>
<path d="M34.93 13.6757L41.6275 20.3732V25.0694C41.6275 25.9942 40.8779 26.7438 39.9531 26.7438H29.9069C28.9822 26.7438 28.2325 25.9942 28.2325 25.0694V20.3732L34.93 13.6757Z" fill="#F4F4F4"/>
</svg>
