<svg xmlns="http://www.w3.org/2000/svg" width="44" height="42" viewBox="0 0 44 42" fill="none">
<path d="M34.9286 29.8571C39.8597 29.8571 43.8571 25.8597 43.8571 20.9286C43.8571 15.9975 39.8597 12 34.9286 12C29.9975 12 26 15.9975 26 20.9286C26 25.8597 29.9975 29.8571 34.9286 29.8571ZM35.9673 19.3526L34.8491 24.6038C34.7706 24.983 34.8817 25.1989 35.1891 25.1989C35.4049 25.1989 35.7319 25.1204 35.9542 24.9242L35.8561 25.3885C35.5357 25.7743 34.8294 26.0555 34.2213 26.0555C33.4365 26.0555 33.103 25.5847 33.3188 24.5841L34.1428 20.7128C34.2147 20.3858 34.1493 20.2681 33.8224 20.1896L33.3188 20.0981L33.4104 19.673L35.9673 19.3526ZM34.9286 18.1384C34.3122 18.1384 33.8125 17.6387 33.8125 17.0223C33.8125 16.4059 34.3122 15.9062 34.9286 15.9062C35.545 15.9062 36.0446 16.4059 36.0446 17.0223C36.0446 17.6387 35.545 18.1384 34.9286 18.1384Z" fill="#0e0e0e"/>
<path d="M7.8125 10.4167C7.09338 10.4167 6.51042 10.9996 6.51042 11.7187C6.51042 12.4379 7.09338 13.0208 7.8125 13.0208H23.4375C24.1566 13.0208 24.7396 12.4379 24.7396 11.7187C24.7396 10.9996 24.1566 10.4167 23.4375 10.4167H7.8125Z" fill="#0e0e0e"/>
<path d="M6.51042 16.9271C6.51042 16.208 7.09338 15.625 7.8125 15.625H23.4375C24.1566 15.625 24.7396 16.208 24.7396 16.9271C24.7396 17.6462 24.1566 18.2292 23.4375 18.2292H7.8125C7.09338 18.2292 6.51042 17.6462 6.51042 16.9271Z" fill="#0e0e0e"/>
<path d="M7.8125 20.8333C7.09338 20.8333 6.51042 21.4163 6.51042 22.1354C6.51042 22.8545 7.09338 23.4375 7.8125 23.4375H23.4375C24.1566 23.4375 24.7396 22.8545 24.7396 22.1354C24.7396 21.4163 24.1566 20.8333 23.4375 20.8333H7.8125Z" fill="#0e0e0e"/>
<path d="M7.8125 26.0417C7.09338 26.0417 6.51042 26.6246 6.51042 27.3437C6.51042 28.0629 7.09338 28.6458 7.8125 28.6458H15.625C16.3441 28.6458 16.9271 28.0629 16.9271 27.3437C16.9271 26.6246 16.3441 26.0417 15.625 26.0417H7.8125Z" fill="#0e0e0e"/>
<path d="M0 5.20833C0 2.33185 2.33185 0 5.20833 0H26.0417C28.9182 0 31.25 2.33185 31.25 5.20833V36.4583C31.25 39.3348 28.9182 41.6667 26.0417 41.6667H5.20833C2.33185 41.6667 0 39.3348 0 36.4583V5.20833ZM26.0417 2.60417H5.20833C3.77009 2.60417 2.60417 3.77009 2.60417 5.20833V36.4583C2.60417 37.8966 3.77009 39.0625 5.20833 39.0625H26.0417C27.4799 39.0625 28.6458 37.8966 28.6458 36.4583V5.20833C28.6458 3.77009 27.4799 2.60417 26.0417 2.60417Z" fill="#0e0e0e"/>
</svg>