<svg width="50" height="42" viewBox="0 0 50 42" fill="none" xmlns="http://www.w3.org/2000/svg">
<path d="M41.0714 29.7634C46.0025 29.7634 50 25.7659 50 20.8348C50 15.9037 46.0025 11.9062 41.0714 11.9062C36.1403 11.9062 32.1428 15.9037 32.1428 20.8348C32.1428 25.7659 36.1403 29.7634 41.0714 29.7634ZM42.1101 19.2588L40.9919 24.51C40.9134 24.8893 41.0246 25.1051 41.3319 25.1051C41.5477 25.1051 41.8747 25.0266 42.097 24.8304L41.999 25.2947C41.6785 25.6806 40.9723 25.9618 40.3641 25.9618C39.5793 25.9618 39.2458 25.4909 39.4616 24.4904L40.2856 20.619C40.3575 20.292 40.2921 20.1743 39.9652 20.0959L39.4616 20.0043L39.5532 19.5792L42.1101 19.2588ZM41.0714 18.0446C40.455 18.0446 39.9553 17.545 39.9553 16.9286C39.9553 16.3122 40.455 15.8125 41.0714 15.8125C41.6878 15.8125 42.1875 16.3122 42.1875 16.9286C42.1875 17.545 41.6878 18.0446 41.0714 18.0446Z" fill="#F4F4F4"/>
<path d="M13.0208 10.4167C12.3016 10.4167 11.7187 10.9996 11.7187 11.7187C11.7187 12.4379 12.3016 13.0208 13.0208 13.0208H28.6458C29.3649 13.0208 29.9478 12.4379 29.9478 11.7187C29.9478 10.9996 29.3649 10.4167 28.6458 10.4167H13.0208Z" fill="#F4F4F4"/>
<path d="M11.7187 16.9271C11.7187 16.208 12.3016 15.625 13.0208 15.625H28.6458C29.3649 15.625 29.9478 16.208 29.9478 16.9271C29.9478 17.6462 29.3649 18.2292 28.6458 18.2292H13.0208C12.3016 18.2292 11.7187 17.6462 11.7187 16.9271Z" fill="#F4F4F4"/>
<path d="M13.0208 20.8333C12.3016 20.8333 11.7187 21.4163 11.7187 22.1354C11.7187 22.8545 12.3016 23.4375 13.0208 23.4375H28.6458C29.3649 23.4375 29.9478 22.8545 29.9478 22.1354C29.9478 21.4163 29.3649 20.8333 28.6458 20.8333H13.0208Z" fill="#F4F4F4"/>
<path d="M13.0208 26.0417C12.3016 26.0417 11.7187 26.6246 11.7187 27.3437C11.7187 28.0629 12.3016 28.6458 13.0208 28.6458H20.8333C21.5524 28.6458 22.1353 28.0629 22.1353 27.3437C22.1353 26.6246 21.5524 26.0417 20.8333 26.0417H13.0208Z" fill="#F4F4F4"/>
<path d="M5.20825 5.20833C5.20825 2.33185 7.5401 0 10.4166 0H31.2499C34.1264 0 36.4583 2.33185 36.4583 5.20833V36.4583C36.4583 39.3348 34.1264 41.6667 31.2499 41.6667H10.4166C7.5401 41.6667 5.20825 39.3348 5.20825 36.4583V5.20833ZM31.2499 2.60417H10.4166C8.97834 2.60417 7.81242 3.77009 7.81242 5.20833V36.4583C7.81242 37.8966 8.97834 39.0625 10.4166 39.0625H31.2499C32.6882 39.0625 33.8541 37.8966 33.8541 36.4583V5.20833C33.8541 3.77009 32.6882 2.60417 31.2499 2.60417Z" fill="#F4F4F4"/>
</svg>
