<svg xmlns="http://www.w3.org/2000/svg" width="25" height="22" viewBox="0 0 25 22" fill="none">
<path fill-rule="evenodd" clip-rule="evenodd" d="M13.2102 21.8936L14.9019 18.86L16.5415 19.1883L17.3985 17.6777L13.7692 15.8511L14.6908 14.8638L18.0171 16.5916L19.7833 13.4741L25 21.8196L13.2102 21.8936ZM10.7087 1.76679C11.0913 -1.00021 15.6 -0.370789 14.7877 2.63565C13.9679 5.67911 10.3386 4.42766 10.7087 1.76679ZM13.4065 13.5753C13.5009 14.7601 12.6985 14.9798 12.1644 14.9996L11.8911 21.7258C11.8911 21.7258 10.0752 22.7131 9.98332 20.9408C9.88396 18.9983 9.67529 15.3821 9.67529 15.3821C9.67529 15.3821 5.71555 13.6543 4.45858 12.8743C3.52702 12.2967 3.23389 11.5908 3.46492 10.6528L1.31861 9.56921L1.33352 9.52478C0.772099 9.27795 0.173419 8.37207 0.565915 7.59948C0.446676 7.81669 2.56069 3.56374 2.56069 3.56374C2.56069 3.56374 5.43981 3.67235 7.54637 3.73159C10.9099 3.83032 12.7457 6.37024 12.7457 6.37024C12.7457 6.37024 13.327 12.5756 13.4065 13.5753ZM3.80276 5.99506L2.31227 8.42143L4.05118 9.32731C4.72438 8.1277 5.30815 7.05151 5.8969 5.97778L3.80276 5.99506ZM10.3361 7.45878L8.16244 11.455L11.3918 13.1286L10.3361 7.45878ZM5.80995 14.9724L1.23663 21.9652C1.23663 21.9652 -0.576793 21.5678 0.188325 19.9609C1.15714 17.9319 3.12956 13.5778 3.12956 13.5778L5.80995 14.9724Z" fill="#0e0e0e"/>
</svg>