<svg width="45" height="42" viewBox="0 0 45 42" fill="none" xmlns="http://www.w3.org/2000/svg">
<path d="M35.93 12C40.8619 12 44.86 15.9981 44.86 20.93C44.86 25.8619 40.8619 29.86 35.93 29.86C30.9981 29.86 27 25.8619 27 20.93C27 15.9981 30.9981 12 35.93 12ZM32.0231 20.3719C31.7149 20.3719 31.465 20.6218 31.465 20.93C31.465 21.2382 31.7149 21.4881 32.0231 21.4881H38.4894L36.0935 23.8841C35.8755 24.1021 35.8755 24.4554 36.0935 24.6734C36.3114 24.8914 36.6648 24.8914 36.8828 24.6734L40.2315 21.3247C40.4495 21.1067 40.4495 20.7533 40.2315 20.5353L36.8828 17.1866C36.6648 16.9686 36.3114 16.9686 36.0935 17.1866C35.8755 17.4046 35.8755 17.7579 36.0935 17.9759L38.4894 20.3719H32.0231Z" fill="#F4F4F4"/>
<path d="M8.60416 10.4167C7.88504 10.4167 7.30207 10.9996 7.30207 11.7187C7.30207 12.4379 7.88504 13.0208 8.60416 13.0208H24.2292C24.9483 13.0208 25.5312 12.4379 25.5312 11.7187C25.5312 10.9996 24.9483 10.4167 24.2292 10.4167H8.60416Z" fill="#F4F4F4"/>
<path d="M7.30207 16.9271C7.30207 16.208 7.88504 15.625 8.60416 15.625H24.2292C24.9483 15.625 25.5312 16.208 25.5312 16.9271C25.5312 17.6462 24.9483 18.2292 24.2292 18.2292H8.60416C7.88504 18.2292 7.30207 17.6462 7.30207 16.9271Z" fill="#F4F4F4"/>
<path d="M8.60416 20.8333C7.88504 20.8333 7.30207 21.4163 7.30207 22.1354C7.30207 22.8545 7.88504 23.4375 8.60416 23.4375H24.2292C24.9483 23.4375 25.5312 22.8545 25.5312 22.1354C25.5312 21.4163 24.9483 20.8333 24.2292 20.8333H8.60416Z" fill="#F4F4F4"/>
<path d="M8.60416 26.0417C7.88504 26.0417 7.30207 26.6246 7.30207 27.3437C7.30207 28.0629 7.88504 28.6458 8.60416 28.6458H16.4167C17.1358 28.6458 17.7187 28.0629 17.7187 27.3437C17.7187 26.6246 17.1358 26.0417 16.4167 26.0417H8.60416Z" fill="#F4F4F4"/>
<path d="M0.791656 5.20833C0.791656 2.33185 3.12351 0 5.99999 0H26.8333C29.7098 0 32.0417 2.33185 32.0417 5.20833V36.4583C32.0417 39.3348 29.7098 41.6667 26.8333 41.6667H5.99999C3.12351 41.6667 0.791656 39.3348 0.791656 36.4583V5.20833ZM26.8333 2.60417H5.99999C4.56175 2.60417 3.39582 3.77009 3.39582 5.20833V36.4583C3.39582 37.8966 4.56175 39.0625 5.99999 39.0625H26.8333C28.2716 39.0625 29.4375 37.8966 29.4375 36.4583V5.20833C29.4375 3.77009 28.2716 2.60417 26.8333 2.60417Z" fill="#F4F4F4"/>
</svg>
