<svg width="19" height="19" viewBox="0 0 19 19" fill="none" xmlns="http://www.w3.org/2000/svg">
<g clip-path="url(#clip0_413_134)">
<path d="M14.816 1.35857C14.5063 1.04778 14.5063 0.543885 14.816 0.233094C15.1257 -0.0776979 15.6279 -0.0776979 15.9376 0.233094L17.736 2.03773L17.7465 2.0483C18.3612 2.66982 18.3598 3.67378 17.7422 4.29354L15.9416 6.10039C15.632 6.41098 15.1302 6.41098 14.8207 6.10039C14.5112 5.78979 14.5112 5.28622 14.8207 4.97562L15.8344 3.95833H3.95801C3.52079 3.95833 3.16634 4.31278 3.16634 4.75V10.2917C3.16634 10.7289 2.8119 11.0833 2.37467 11.0833C1.93745 11.0833 1.58301 10.7289 1.58301 10.2917V4.75C1.58301 3.43833 2.64633 2.375 3.95801 2.375H15.8289L14.816 1.35857Z" fill="#F4F4F4"/>
<path d="M17.4165 8.70964C17.4165 8.2724 17.062 7.91797 16.6248 7.91797C16.1876 7.91797 15.8331 8.2724 15.8331 8.70964V14.2513C15.8331 14.6885 15.4787 15.043 15.0415 15.043H3.16856L4.18149 14.0265C4.49121 13.7157 4.49121 13.2118 4.18149 12.901C3.87177 12.5903 3.36962 12.5903 3.05989 12.901L1.26148 14.7057L1.25105 14.7162C0.636259 15.3378 0.637675 16.3418 1.2553 16.9615L3.05592 18.7684C3.36544 19.079 3.86728 19.079 4.1768 18.7684C4.48633 18.4577 4.48633 17.9542 4.1768 17.6436L3.16301 16.6263H15.0415C16.3531 16.6263 17.4165 15.563 17.4165 14.2513V8.70964Z" fill="#F4F4F4"/>
</g>
<defs>
<clipPath id="clip0_413_134">
<rect width="19" height="19" fill="white"/>
</clipPath>
</defs>
</svg>
