<svg xmlns="http://www.w3.org/2000/svg" width="44" height="42" viewBox="0 0 44 42" fill="none">
<path d="M7.8125 10.4167C7.09338 10.4167 6.51042 10.9996 6.51042 11.7187C6.51042 12.4379 7.09338 13.0208 7.8125 13.0208H23.4375C24.1566 13.0208 24.7396 12.4379 24.7396 11.7187C24.7396 10.9996 24.1566 10.4167 23.4375 10.4167H7.8125Z" fill="#0e0e0e"/>
<path d="M6.51042 16.9271C6.51042 16.208 7.09338 15.625 7.8125 15.625H23.4375C24.1566 15.625 24.7396 16.208 24.7396 16.9271C24.7396 17.6462 24.1566 18.2292 23.4375 18.2292H7.8125C7.09338 18.2292 6.51042 17.6462 6.51042 16.9271Z" fill="#0e0e0e"/>
<path d="M7.8125 20.8333C7.09338 20.8333 6.51042 21.4163 6.51042 22.1354C6.51042 22.8545 7.09338 23.4375 7.8125 23.4375H23.4375C24.1566 23.4375 24.7396 22.8545 24.7396 22.1354C24.7396 21.4163 24.1566 20.8333 23.4375 20.8333H7.8125Z" fill="#0e0e0e"/>
<path d="M7.8125 26.0417C7.09338 26.0417 6.51042 26.6246 6.51042 27.3437C6.51042 28.0629 7.09338 28.6458 7.8125 28.6458H15.625C16.3441 28.6458 16.9271 28.0629 16.9271 27.3437C16.9271 26.6246 16.3441 26.0417 15.625 26.0417H7.8125Z" fill="#0e0e0e"/>
<path d="M0 5.20833C0 2.33185 2.33185 0 5.20833 0H26.0417C28.9182 0 31.25 2.33185 31.25 5.20833V36.4583C31.25 39.3348 28.9182 41.6667 26.0417 41.6667H5.20833C2.33185 41.6667 0 39.3348 0 36.4583V5.20833ZM26.0417 2.60417H5.20833C3.77009 2.60417 2.60417 3.77009 2.60417 5.20833V36.4583C2.60417 37.8966 3.77009 39.0625 5.20833 39.0625H26.0417C27.4799 39.0625 28.6458 37.8966 28.6458 36.4583V5.20833C28.6458 3.77009 27.4799 2.60417 26.0417 2.60417Z" fill="#0e0e0e"/>
<path d="M36.498 13.1725C36.0372 11.6092 33.8228 11.6092 33.362 13.1725L33.2503 13.5516C32.9559 14.5505 31.8149 15.0231 30.9004 14.525L30.5533 14.3359C29.1221 13.5563 27.5563 15.1221 28.3359 16.5533L28.525 16.9004C29.0231 17.8149 28.5505 18.9559 27.5516 19.2503L27.1725 19.362C25.6092 19.8228 25.6092 22.0372 27.1725 22.498L27.5516 22.6097C28.5505 22.9041 29.0231 24.0451 28.525 24.9596L28.3359 25.3067C27.5563 26.7379 29.1221 28.3037 30.5533 27.5241L30.9004 27.335C31.8149 26.8369 32.9559 27.3095 33.2503 28.3084L33.362 28.6875C33.8228 30.2508 36.0372 30.2508 36.498 28.6875L36.6097 28.3084C36.9041 27.3095 38.0451 26.8369 38.9596 27.335L39.3067 27.5241C40.7379 28.3037 42.3037 26.7379 41.5241 25.3067L41.335 24.9596C40.8369 24.0451 41.3095 22.9041 42.3084 22.6097L42.6875 22.498C44.2508 22.0372 44.2508 19.8228 42.6875 19.362L42.3084 19.2503C41.3095 18.9559 40.8369 17.8149 41.335 16.9004L41.5241 16.5533C42.3037 15.1221 40.7379 13.5563 39.3067 14.3359L38.9596 14.525C38.0451 15.0231 36.9041 14.5505 36.6097 13.5516L36.498 13.1725ZM34.93 24.1993C33.1244 24.1993 31.6607 22.7356 31.6607 20.93C31.6607 19.1244 33.1244 17.6607 34.93 17.6607C36.7356 17.6607 38.1993 19.1244 38.1993 20.93C38.1993 22.7356 36.7356 24.1993 34.93 24.1993Z" fill="#0e0e0e"/>
</svg>